<svg width="77" height="77" viewBox="0 0 77 77" fill="none" xmlns="http://www.w3.org/2000/svg">
<rect width="77" height="77" rx="38.5" fill="#E5E7EB"/>
<path d="M17.815 48.32H9.11313V21.44H18.0906C20.7244 21.44 22.9863 21.9781 24.8763 23.0544C26.7663 24.1219 28.2144 25.6575 29.2206 27.6612C30.2356 29.6562 30.7431 32.0494 30.7431 34.8406C30.7431 37.6406 30.2313 40.0469 29.2075 42.0594C28.1925 44.0719 26.7225 45.6206 24.7975 46.7056C22.8725 47.7819 20.545 48.32 17.815 48.32ZM13.1688 44.7762H17.5919C19.6394 44.7762 21.3413 44.3912 22.6975 43.6212C24.0538 42.8425 25.0688 41.7181 25.7425 40.2481C26.4163 38.7694 26.7531 36.9669 26.7531 34.8406C26.7531 32.7319 26.4163 30.9425 25.7425 29.4725C25.0775 28.0025 24.0844 26.8869 22.7631 26.1256C21.4419 25.3644 19.8013 24.9837 17.8413 24.9837H13.1688V44.7762Z" fill="#0083FF"/>
<path d="M39.0469 54.8869C37.0606 54.8869 35.35 54.4625 33.915 53.6137C32.4888 52.7562 31.3863 51.5531 30.6075 50.0044C29.8375 48.4469 29.4525 46.6225 29.4525 44.5312C29.4525 42.4662 29.8375 40.6462 30.6075 39.0712C31.3863 37.4962 32.4713 36.2669 33.8625 35.3831C35.2625 34.4994 36.8988 34.0575 38.7713 34.0575C39.9088 34.0575 41.0113 34.2456 42.0788 34.6219C43.1463 34.9981 44.1044 35.5887 44.9531 36.3937C45.8019 37.1987 46.4713 38.2444 46.9613 39.5306C47.4513 40.8081 47.6963 42.3612 47.6963 44.19V45.5812H31.6706V42.6412H43.8506C43.8506 41.6087 43.6406 40.6944 43.2206 39.8981C42.8006 39.0931 42.21 38.4587 41.4488 37.995C40.6963 37.5312 39.8125 37.2994 38.7975 37.2994C37.695 37.2994 36.7325 37.5706 35.91 38.1131C35.0963 38.6469 34.4663 39.3469 34.02 40.2131C33.5825 41.0706 33.3638 42.0025 33.3638 43.0088V45.3056C33.3638 46.6531 33.6 47.7994 34.0725 48.7444C34.5538 49.6894 35.2231 50.4112 36.0806 50.91C36.9381 51.4 37.94 51.645 39.0863 51.645C39.83 51.645 40.5081 51.54 41.1206 51.33C41.7331 51.1112 42.2625 50.7875 42.7088 50.3587C43.155 49.93 43.4963 49.4006 43.7325 48.7706L47.4469 49.44C47.1494 50.5337 46.6156 51.4919 45.8456 52.3144C45.0844 53.1281 44.1263 53.7625 42.9713 54.2175C41.825 54.6637 40.5169 54.8869 39.0469 54.8869Z" fill="#0083FF"/>
<path d="M66.0844 37.4L58.7737 57.56H54.5737L47.25 37.4H51.4631L56.5687 52.9138H56.7787L61.8712 37.4H66.0844Z" fill="#0083FF"/>
<path d="M34.986 11.9322C35.2639 11.4696 35.8243 11.1752 36.3601 11.2389C53.8802 13.3208 54.3306 13.5871 63.6631 27.6312C63.9586 28.0759 63.9787 28.6617 63.7037 29.1194V29.1194C63.1781 29.9941 61.9132 30.0085 61.3535 29.1554C52.717 15.9895 51.6754 15.3637 36.0758 13.9672C35.0665 13.8769 34.4641 12.8007 34.986 11.9322V11.9322Z" fill="#0083FF"/>
<rect x="46.2" y="18.48" width="6.16" height="6.16" rx="3.08" fill="#0083FF"/>
</svg>
