<svg width="25" height="25" viewBox="0 0 25 25" fill="none" xmlns="http://www.w3.org/2000/svg">
<rect width="25" height="25" rx="12.5" fill="#E5E7EB"/>
<path d="M5.78409 16H2.95881V7.27273H5.87358C6.72869 7.27273 7.46307 7.44744 8.0767 7.79688C8.69034 8.14347 9.16051 8.64205 9.48722 9.29261C9.81676 9.94034 9.98153 10.7173 9.98153 11.6236C9.98153 12.5327 9.81534 13.3139 9.48295 13.9673C9.15341 14.6207 8.67614 15.1236 8.05114 15.4759C7.42614 15.8253 6.67045 16 5.78409 16ZM4.27557 14.8494H5.71165C6.37642 14.8494 6.92898 14.7244 7.36932 14.4744C7.80966 14.2216 8.1392 13.8565 8.35795 13.3793C8.5767 12.8991 8.68608 12.3139 8.68608 11.6236C8.68608 10.9389 8.5767 10.358 8.35795 9.88068C8.14205 9.40341 7.8196 9.04119 7.39062 8.79403C6.96165 8.54687 6.42898 8.4233 5.79261 8.4233H4.27557V14.8494Z" fill="#0083FF"/>
<path d="M12.6776 18.1321C12.0327 18.1321 11.4773 17.9943 11.0114 17.7188C10.5483 17.4403 10.1903 17.0497 9.9375 16.5469C9.6875 16.0412 9.5625 15.4489 9.5625 14.7699C9.5625 14.0994 9.6875 13.5085 9.9375 12.9972C10.1903 12.4858 10.5426 12.0866 10.9943 11.7997C11.4489 11.5128 11.9801 11.3693 12.5881 11.3693C12.9574 11.3693 13.3153 11.4304 13.6619 11.5526C14.0085 11.6747 14.3196 11.8665 14.5952 12.1278C14.8707 12.3892 15.0881 12.7287 15.2472 13.1463C15.4063 13.5611 15.4858 14.0653 15.4858 14.6591V15.1108H10.2827V14.1562H14.2372C14.2372 13.821 14.169 13.5241 14.0327 13.2656C13.8963 13.0043 13.7045 12.7983 13.4574 12.6477C13.2131 12.4972 12.9261 12.4219 12.5966 12.4219C12.2386 12.4219 11.9261 12.5099 11.6591 12.6861C11.3949 12.8594 11.1903 13.0866 11.0455 13.3679C10.9034 13.6463 10.8324 13.9489 10.8324 14.2756V15.0213C10.8324 15.4588 10.9091 15.831 11.0625 16.1378C11.2188 16.4446 11.4361 16.679 11.7145 16.8409C11.9929 17 12.3182 17.0795 12.6903 17.0795C12.9318 17.0795 13.152 17.0455 13.3509 16.9773C13.5497 16.9062 13.7216 16.8011 13.8665 16.6619C14.0114 16.5227 14.1222 16.3509 14.1989 16.1463L15.4048 16.3636C15.3082 16.7187 15.1349 17.0298 14.8849 17.2969C14.6378 17.5611 14.3267 17.767 13.9517 17.9148C13.5795 18.0597 13.1548 18.1321 12.6776 18.1321Z" fill="#0083FF"/>
<path d="M21.456 12.4545L19.0824 19H17.7188L15.3409 12.4545H16.7088L18.3665 17.4915H18.4347L20.0881 12.4545H21.456Z" fill="#0083FF"/>
<path d="M11.3591 3.87408C11.4493 3.72391 11.6313 3.62831 11.8052 3.64899C17.4936 4.32493 17.6398 4.4114 20.6698 8.97116C20.7658 9.11556 20.7723 9.30576 20.683 9.45436V9.45436C20.5124 9.73833 20.1017 9.74303 19.92 9.46602C17.1159 5.1914 16.7777 4.98823 11.7129 4.53482C11.3852 4.50548 11.1897 4.15607 11.3591 3.87408V3.87408Z" fill="#0083FF"/>
<rect x="15" y="6" width="2" height="2" rx="1" fill="#0083FF"/>
</svg>
